{
	"asset":{
		"generator":"Khronos glTF Blender I/O v4.0.44",
		"version":"2.0"
	},
	"scene":0,
	"scenes":[
		{
			"name":"Scene",
			"nodes":[
				0
			]
		}
	],
	"nodes":[
		{
			"mesh":0,
			"name":"building1",
			"rotation":[
				0,
				-0.7071068286895752,
				0,
				0.7071068286895752
			]
		}
	],
	"materials":[
		{
			"doubleSided":true,
			"name":"buildingside3.001",
			"pbrMetallicRoughness":{
				"metallicFactor":0,
				"roughnessFactor":0.5
			}
		},
		{
			"doubleSided":true,
			"name":"buildingside1",
			"pbrMetallicRoughness":{
				"metallicFactor":0,
				"roughnessFactor":0.5
			}
		},
		{
			"doubleSided":true,
			"name":"buildingbottom",
			"pbrMetallicRoughness":{
				"metallicFactor":0,
				"roughnessFactor":0.5
			}
		},
		{
			"doubleSided":true,
			"name":"buildingtop",
			"pbrMetallicRoughness":{
				"metallicFactor":0,
				"roughnessFactor":0.5
			}
		}
	],
	"meshes":[
		{
			"name":"Cube.006",
			"primitives":[
				{
					"attributes":{
						"POSITION":0,
						"NORMAL":1,
						"TEXCOORD_0":2,
						"TANGENT":3
					},
					"indices":4,
					"material":0
				},
				{
					"attributes":{
						"POSITION":5,
						"NORMAL":6,
						"TEXCOORD_0":7,
						"TANGENT":8
					},
					"indices":9,
					"material":1
				},
				{
					"attributes":{
						"POSITION":10,
						"NORMAL":11,
						"TEXCOORD_0":12,
						"TANGENT":13
					},
					"indices":14,
					"material":2
				},
				{
					"attributes":{
						"POSITION":15,
						"NORMAL":16,
						"TEXCOORD_0":17,
						"TANGENT":18
					},
					"indices":19,
					"material":3
				}
			]
		}
	],
	"accessors":[
		{
			"bufferView":0,
			"componentType":5126,
			"count":20,
			"max":[
				3.20654296875,
				15.801690101623535,
				3.4333438873291016
			],
			"min":[
				-3.4455313682556152,
				-11.368964195251465,
				-3.2187306880950928
			],
			"type":"VEC3"
		},
		{
			"bufferView":1,
			"componentType":5126,
			"count":20,
			"type":"VEC3"
		},
		{
			"bufferView":2,
			"componentType":5126,
			"count":20,
			"type":"VEC2"
		},
		{
			"bufferView":3,
			"componentType":5126,
			"count":20,
			"type":"VEC4"
		},
		{
			"bufferView":4,
			"componentType":5123,
			"count":30,
			"type":"SCALAR"
		},
		{
			"bufferView":5,
			"componentType":5126,
			"count":48,
			"max":[
				3.20654296875,
				11.42113208770752,
				3.4333438873291016
			],
			"min":[
				-3.4455313682556152,
				-11.368964195251465,
				-3.2187306880950928
			],
			"type":"VEC3"
		},
		{
			"bufferView":6,
			"componentType":5126,
			"count":48,
			"type":"VEC3"
		},
		{
			"bufferView":7,
			"componentType":5126,
			"count":48,
			"type":"VEC2"
		},
		{
			"bufferView":8,
			"componentType":5126,
			"count":48,
			"type":"VEC4"
		},
		{
			"bufferView":9,
			"componentType":5123,
			"count":72,
			"type":"SCALAR"
		},
		{
			"bufferView":10,
			"componentType":5126,
			"count":16,
			"max":[
				3.040219783782959,
				2.0655605792999268,
				3.2670207023620605
			],
			"min":[
				-3.279208183288574,
				-0.005731821060180664,
				-3.0524075031280518
			],
			"type":"VEC3"
		},
		{
			"bufferView":11,
			"componentType":5126,
			"count":16,
			"type":"VEC3"
		},
		{
			"bufferView":12,
			"componentType":5126,
			"count":16,
			"type":"VEC2"
		},
		{
			"bufferView":13,
			"componentType":5126,
			"count":16,
			"type":"VEC4"
		},
		{
			"bufferView":14,
			"componentType":5123,
			"count":24,
			"type":"SCALAR"
		},
		{
			"bufferView":15,
			"componentType":5126,
			"count":4,
			"max":[
				3.20654296875,
				15.801690101623535,
				3.4333438873291016
			],
			"min":[
				-3.4455313682556152,
				15.801690101623535,
				-3.2187306880950928
			],
			"type":"VEC3"
		},
		{
			"bufferView":16,
			"componentType":5126,
			"count":4,
			"type":"VEC3"
		},
		{
			"bufferView":17,
			"componentType":5126,
			"count":4,
			"type":"VEC2"
		},
		{
			"bufferView":18,
			"componentType":5126,
			"count":4,
			"type":"VEC4"
		},
		{
			"bufferView":19,
			"componentType":5123,
			"count":6,
			"type":"SCALAR"
		}
	],
	"bufferViews":[
		{
			"buffer":0,
			"byteLength":240,
			"byteOffset":0,
			"target":34962
		},
		{
			"buffer":0,
			"byteLength":240,
			"byteOffset":240,
			"target":34962
		},
		{
			"buffer":0,
			"byteLength":160,
			"byteOffset":480,
			"target":34962
		},
		{
			"buffer":0,
			"byteLength":320,
			"byteOffset":640,
			"target":34962
		},
		{
			"buffer":0,
			"byteLength":60,
			"byteOffset":960,
			"target":34963
		},
		{
			"buffer":0,
			"byteLength":576,
			"byteOffset":1020,
			"target":34962
		},
		{
			"buffer":0,
			"byteLength":576,
			"byteOffset":1596,
			"target":34962
		},
		{
			"buffer":0,
			"byteLength":384,
			"byteOffset":2172,
			"target":34962
		},
		{
			"buffer":0,
			"byteLength":768,
			"byteOffset":2556,
			"target":34962
		},
		{
			"buffer":0,
			"byteLength":144,
			"byteOffset":3324,
			"target":34963
		},
		{
			"buffer":0,
			"byteLength":192,
			"byteOffset":3468,
			"target":34962
		},
		{
			"buffer":0,
			"byteLength":192,
			"byteOffset":3660,
			"target":34962
		},
		{
			"buffer":0,
			"byteLength":128,
			"byteOffset":3852,
			"target":34962
		},
		{
			"buffer":0,
			"byteLength":256,
			"byteOffset":3980,
			"target":34962
		},
		{
			"buffer":0,
			"byteLength":48,
			"byteOffset":4236,
			"target":34963
		},
		{
			"buffer":0,
			"byteLength":48,
			"byteOffset":4284,
			"target":34962
		},
		{
			"buffer":0,
			"byteLength":48,
			"byteOffset":4332,
			"target":34962
		},
		{
			"buffer":0,
			"byteLength":32,
			"byteOffset":4380,
			"target":34962
		},
		{
			"buffer":0,
			"byteLength":64,
			"byteOffset":4412,
			"target":34962
		},
		{
			"buffer":0,
			"byteLength":12,
			"byteOffset":4476,
			"target":34963
		}
	],
	"buffers":[
		{
			"byteLength":4488,
			"uri":"building1-6ae941a60ab10dfec52696a5dcd55c7d.bin"
		}
	]
}
