{
	"asset":{
		"generator":"Khronos glTF Blender I/O v4.0.44",
		"version":"2.0"
	},
	"scene":0,
	"scenes":[
		{
			"name":"Scene",
			"nodes":[
				0
			]
		}
	],
	"nodes":[
		{
			"mesh":0,
			"name":"building2",
			"scale":[
				4.639869213104248,
				4.639869213104248,
				4.639869213104248
			],
			"translation":[
				-0.08555412292480469,
				0.6362537145614624,
				-0.1327667236328125
			]
		}
	],
	"materials":[
		{
			"doubleSided":true,
			"name":"buildingside3",
			"pbrMetallicRoughness":{
				"metallicFactor":0,
				"roughnessFactor":0.5
			}
		},
		{
			"doubleSided":true,
			"name":"buildingtop.001",
			"pbrMetallicRoughness":{
				"metallicFactor":0,
				"roughnessFactor":0.5
			}
		}
	],
	"meshes":[
		{
			"name":"Cylinder",
			"primitives":[
				{
					"attributes":{
						"POSITION":0,
						"NORMAL":1,
						"TEXCOORD_0":2
					},
					"indices":3,
					"material":0
				},
				{
					"attributes":{
						"POSITION":4,
						"NORMAL":5,
						"TEXCOORD_0":6
					},
					"indices":7,
					"material":1
				}
			]
		}
	],
	"accessors":[
		{
			"bufferView":0,
			"componentType":5126,
			"count":54,
			"max":[
				0.9832605719566345,
				3.8880627155303955,
				0.9832113981246948
			],
			"min":[
				-0.9832605719566345,
				-6.513089179992676,
				-1.2875314950942993
			],
			"type":"VEC3"
		},
		{
			"bufferView":1,
			"componentType":5126,
			"count":54,
			"type":"VEC3"
		},
		{
			"bufferView":2,
			"componentType":5126,
			"count":54,
			"type":"VEC2"
		},
		{
			"bufferView":3,
			"componentType":5123,
			"count":84,
			"type":"SCALAR"
		},
		{
			"bufferView":4,
			"componentType":5126,
			"count":30,
			"max":[
				0.3785449266433716,
				3.899169921875,
				0.2849459648132324
			],
			"min":[
				-0.3785448670387268,
				3.8880627155303955,
				-0.5892660617828369
			],
			"type":"VEC3"
		},
		{
			"bufferView":5,
			"componentType":5126,
			"count":30,
			"type":"VEC3"
		},
		{
			"bufferView":6,
			"componentType":5126,
			"count":30,
			"type":"VEC2"
		},
		{
			"bufferView":7,
			"componentType":5123,
			"count":48,
			"type":"SCALAR"
		}
	],
	"bufferViews":[
		{
			"buffer":0,
			"byteLength":648,
			"byteOffset":0,
			"target":34962
		},
		{
			"buffer":0,
			"byteLength":648,
			"byteOffset":648,
			"target":34962
		},
		{
			"buffer":0,
			"byteLength":432,
			"byteOffset":1296,
			"target":34962
		},
		{
			"buffer":0,
			"byteLength":168,
			"byteOffset":1728,
			"target":34963
		},
		{
			"buffer":0,
			"byteLength":360,
			"byteOffset":1896,
			"target":34962
		},
		{
			"buffer":0,
			"byteLength":360,
			"byteOffset":2256,
			"target":34962
		},
		{
			"buffer":0,
			"byteLength":240,
			"byteOffset":2616,
			"target":34962
		},
		{
			"buffer":0,
			"byteLength":96,
			"byteOffset":2856,
			"target":34963
		}
	],
	"buffers":[
		{
			"byteLength":2952,
			"uri":"building2-7595c1e999a74f43bc7b31db69569578.bin"
		}
	]
}
