{
	"asset":{
		"generator":"Khronos glTF Blender I/O v4.0.44",
		"version":"2.0"
	},
	"scene":0,
	"scenes":[
		{
			"name":"Scene",
			"nodes":[
				0
			]
		}
	],
	"nodes":[
		{
			"mesh":0,
			"name":"Cube",
			"translation":[
				0,
				0,
				-0.6264922618865967
			]
		}
	],
	"materials":[
		{
			"doubleSided":true,
			"name":"buildingside3.002",
			"pbrMetallicRoughness":{
				"metallicFactor":0,
				"roughnessFactor":0.5
			}
		},
		{
			"doubleSided":true,
			"name":"buildingbottom",
			"pbrMetallicRoughness":{
				"metallicFactor":0,
				"roughnessFactor":0.5
			}
		}
	],
	"meshes":[
		{
			"name":"Cube",
			"primitives":[
				{
					"attributes":{
						"POSITION":0,
						"NORMAL":1,
						"TEXCOORD_0":2,
						"TANGENT":3
					},
					"indices":4,
					"material":0
				},
				{
					"attributes":{
						"POSITION":5,
						"NORMAL":6,
						"TEXCOORD_0":7,
						"TANGENT":8
					},
					"indices":9,
					"material":1
				}
			]
		}
	],
	"accessors":[
		{
			"bufferView":0,
			"componentType":5126,
			"count":88,
			"max":[
				9.219802856445312,
				8.188436508178711,
				3.6791000366210938
			],
			"min":[
				-8.25875186920166,
				-18.715850830078125,
				-4.71763801574707
			],
			"type":"VEC3"
		},
		{
			"bufferView":1,
			"componentType":5126,
			"count":88,
			"type":"VEC3"
		},
		{
			"bufferView":2,
			"componentType":5126,
			"count":88,
			"type":"VEC2"
		},
		{
			"bufferView":3,
			"componentType":5126,
			"count":88,
			"type":"VEC4"
		},
		{
			"bufferView":4,
			"componentType":5123,
			"count":138,
			"type":"SCALAR"
		},
		{
			"bufferView":5,
			"componentType":5126,
			"count":20,
			"max":[
				9.219802856445312,
				8.188436508178711,
				3.6791000366210938
			],
			"min":[
				-8.25875186920166,
				-18.715850830078125,
				-4.71763801574707
			],
			"type":"VEC3"
		},
		{
			"bufferView":6,
			"componentType":5126,
			"count":20,
			"type":"VEC3"
		},
		{
			"bufferView":7,
			"componentType":5126,
			"count":20,
			"type":"VEC2"
		},
		{
			"bufferView":8,
			"componentType":5126,
			"count":20,
			"type":"VEC4"
		},
		{
			"bufferView":9,
			"componentType":5123,
			"count":42,
			"type":"SCALAR"
		}
	],
	"bufferViews":[
		{
			"buffer":0,
			"byteLength":1056,
			"byteOffset":0,
			"target":34962
		},
		{
			"buffer":0,
			"byteLength":1056,
			"byteOffset":1056,
			"target":34962
		},
		{
			"buffer":0,
			"byteLength":704,
			"byteOffset":2112,
			"target":34962
		},
		{
			"buffer":0,
			"byteLength":1408,
			"byteOffset":2816,
			"target":34962
		},
		{
			"buffer":0,
			"byteLength":276,
			"byteOffset":4224,
			"target":34963
		},
		{
			"buffer":0,
			"byteLength":240,
			"byteOffset":4500,
			"target":34962
		},
		{
			"buffer":0,
			"byteLength":240,
			"byteOffset":4740,
			"target":34962
		},
		{
			"buffer":0,
			"byteLength":160,
			"byteOffset":4980,
			"target":34962
		},
		{
			"buffer":0,
			"byteLength":320,
			"byteOffset":5140,
			"target":34962
		},
		{
			"buffer":0,
			"byteLength":84,
			"byteOffset":5460,
			"target":34963
		}
	],
	"buffers":[
		{
			"byteLength":5544,
			"uri":"building4-f73853566ece59be6a76793b43f02640.bin"
		}
	]
}
