{
	"asset":{
		"generator":"Khronos glTF Blender I/O v4.0.44",
		"version":"2.0"
	},
	"scene":0,
	"scenes":[
		{
			"name":"Scene",
			"nodes":[
				0
			]
		}
	],
	"nodes":[
		{
			"mesh":0,
			"name":"building3",
			"translation":[
				-8.956831932067871,
				0,
				-3.8480758666992188
			]
		}
	],
	"materials":[
		{
			"doubleSided":true,
			"name":"buildingside3",
			"pbrMetallicRoughness":{
				"metallicFactor":0,
				"roughnessFactor":0.5
			}
		},
		{
			"doubleSided":true,
			"name":"buildingtop",
			"pbrMetallicRoughness":{
				"metallicFactor":0,
				"roughnessFactor":0.5
			}
		},
		{
			"doubleSided":true,
			"name":"buildingside3.001",
			"pbrMetallicRoughness":{
				"metallicFactor":0,
				"roughnessFactor":0.5
			}
		},
		{
			"doubleSided":true,
			"name":"buildingsidered",
			"pbrMetallicRoughness":{
				"metallicFactor":0,
				"roughnessFactor":0.5
			}
		}
	],
	"meshes":[
		{
			"name":"Cube.008",
			"primitives":[
				{
					"attributes":{
						"POSITION":0,
						"NORMAL":1,
						"TEXCOORD_0":2,
						"TANGENT":3
					},
					"indices":4,
					"material":0
				},
				{
					"attributes":{
						"POSITION":5,
						"NORMAL":6,
						"TEXCOORD_0":7,
						"TANGENT":8
					},
					"indices":9,
					"material":1
				},
				{
					"attributes":{
						"POSITION":10,
						"NORMAL":11,
						"TEXCOORD_0":12,
						"TANGENT":13
					},
					"indices":14,
					"material":2
				},
				{
					"attributes":{
						"POSITION":15,
						"NORMAL":16,
						"TEXCOORD_0":17,
						"TANGENT":18
					},
					"indices":19,
					"material":3
				}
			]
		}
	],
	"accessors":[
		{
			"bufferView":0,
			"componentType":5126,
			"count":20,
			"max":[
				11.93477725982666,
				-24.257686614990234,
				10.818778991699219
			],
			"min":[
				5.800397872924805,
				-24.257686614990234,
				-4.096221923828125
			],
			"type":"VEC3"
		},
		{
			"bufferView":1,
			"componentType":5126,
			"count":20,
			"type":"VEC3"
		},
		{
			"bufferView":2,
			"componentType":5126,
			"count":20,
			"type":"VEC2"
		},
		{
			"bufferView":3,
			"componentType":5126,
			"count":20,
			"type":"VEC4"
		},
		{
			"bufferView":4,
			"componentType":5123,
			"count":42,
			"type":"SCALAR"
		},
		{
			"bufferView":5,
			"componentType":5126,
			"count":16,
			"max":[
				11.93477725982666,
				7.397585868835449,
				10.818778991699219
			],
			"min":[
				5.800397872924805,
				7.397585868835449,
				-4.096221923828125
			],
			"type":"VEC3"
		},
		{
			"bufferView":6,
			"componentType":5126,
			"count":16,
			"type":"VEC3"
		},
		{
			"bufferView":7,
			"componentType":5126,
			"count":16,
			"type":"VEC2"
		},
		{
			"bufferView":8,
			"componentType":5126,
			"count":16,
			"type":"VEC4"
		},
		{
			"bufferView":9,
			"componentType":5123,
			"count":36,
			"type":"SCALAR"
		},
		{
			"bufferView":10,
			"componentType":5126,
			"count":12,
			"max":[
				11.516667366027832,
				-5.298157691955566,
				5.847112655639648
			],
			"min":[
				6.218507766723633,
				-24.257686614990234,
				0.8754444122314453
			],
			"type":"VEC3"
		},
		{
			"bufferView":11,
			"componentType":5126,
			"count":12,
			"type":"VEC3"
		},
		{
			"bufferView":12,
			"componentType":5126,
			"count":12,
			"type":"VEC2"
		},
		{
			"bufferView":13,
			"componentType":5126,
			"count":12,
			"type":"VEC4"
		},
		{
			"bufferView":14,
			"componentType":5123,
			"count":18,
			"type":"SCALAR"
		},
		{
			"bufferView":15,
			"componentType":5126,
			"count":78,
			"max":[
				11.93477725982666,
				7.397585868835449,
				10.818778991699219
			],
			"min":[
				5.800397872924805,
				-24.257686614990234,
				-4.096221923828125
			],
			"type":"VEC3"
		},
		{
			"bufferView":16,
			"componentType":5126,
			"count":78,
			"type":"VEC3"
		},
		{
			"bufferView":17,
			"componentType":5126,
			"count":78,
			"type":"VEC2"
		},
		{
			"bufferView":18,
			"componentType":5126,
			"count":78,
			"type":"VEC4"
		},
		{
			"bufferView":19,
			"componentType":5123,
			"count":180,
			"type":"SCALAR"
		}
	],
	"bufferViews":[
		{
			"buffer":0,
			"byteLength":240,
			"byteOffset":0,
			"target":34962
		},
		{
			"buffer":0,
			"byteLength":240,
			"byteOffset":240,
			"target":34962
		},
		{
			"buffer":0,
			"byteLength":160,
			"byteOffset":480,
			"target":34962
		},
		{
			"buffer":0,
			"byteLength":320,
			"byteOffset":640,
			"target":34962
		},
		{
			"buffer":0,
			"byteLength":84,
			"byteOffset":960,
			"target":34963
		},
		{
			"buffer":0,
			"byteLength":192,
			"byteOffset":1044,
			"target":34962
		},
		{
			"buffer":0,
			"byteLength":192,
			"byteOffset":1236,
			"target":34962
		},
		{
			"buffer":0,
			"byteLength":128,
			"byteOffset":1428,
			"target":34962
		},
		{
			"buffer":0,
			"byteLength":256,
			"byteOffset":1556,
			"target":34962
		},
		{
			"buffer":0,
			"byteLength":72,
			"byteOffset":1812,
			"target":34963
		},
		{
			"buffer":0,
			"byteLength":144,
			"byteOffset":1884,
			"target":34962
		},
		{
			"buffer":0,
			"byteLength":144,
			"byteOffset":2028,
			"target":34962
		},
		{
			"buffer":0,
			"byteLength":96,
			"byteOffset":2172,
			"target":34962
		},
		{
			"buffer":0,
			"byteLength":192,
			"byteOffset":2268,
			"target":34962
		},
		{
			"buffer":0,
			"byteLength":36,
			"byteOffset":2460,
			"target":34963
		},
		{
			"buffer":0,
			"byteLength":936,
			"byteOffset":2496,
			"target":34962
		},
		{
			"buffer":0,
			"byteLength":936,
			"byteOffset":3432,
			"target":34962
		},
		{
			"buffer":0,
			"byteLength":624,
			"byteOffset":4368,
			"target":34962
		},
		{
			"buffer":0,
			"byteLength":1248,
			"byteOffset":4992,
			"target":34962
		},
		{
			"buffer":0,
			"byteLength":360,
			"byteOffset":6240,
			"target":34963
		}
	],
	"buffers":[
		{
			"byteLength":6600,
			"uri":"building3-ba993e966d6339e8458cdeaef027dd50.bin"
		}
	]
}
